<svg xmlns="http://www.w3.org/2000/svg" viewBox="0 0 1000 420">
  <defs>
    <marker id="arrow" viewBox="0 0 10 10" refX="9" refY="5" markerWidth="6" markerHeight="6" orient="auto-start-reverse">
      <path d="M 0 0 L 10 5 L 0 10 z" fill="#64748b" />
    </marker>
    <filter id="shadow" x="-10%" y="-10%" width="120%" height="120%">
      <feDropShadow dx="2" dy="3" stdDeviation="3" flood-opacity="0.1" />
    </filter>
  </defs>
  <rect width="1000" height="420" fill="#ffffff" />
  <g stroke="#f1f5f9" stroke-width="1">
    <line x1="0" y1="50" x2="1000" y2="50" /><line x1="0" y1="100" x2="1000" y2="100" />
    <line x1="0" y1="150" x2="1000" y2="150" /><line x1="0" y1="200" x2="1000" y2="200" />
    <line x1="0" y1="250" x2="1000" y2="250" /><line x1="0" y1="300" x2="1000" y2="300" />
    <line x1="0" y1="350" x2="1000" y2="350" />
    <line x1="125" y1="0" x2="125" y2="420" /><line x1="375" y1="0" x2="375" y2="420" />
    <line x1="625" y1="0" x2="625" y2="420" /><line x1="875" y1="0" x2="875" y2="420" />
  </g>
  <text x="500" y="32" fill="#64748b" font-size="11" font-weight="500" text-anchor="middle" letter-spacing="1">BENCH / ATE ENGINEERING FEEDBACK LOOP</text>
  <path d="M 500 90 C 720 90, 880 150, 880 210 C 880 290, 720 350, 500 350 C 280 350, 120 290, 120 210 C 120 150, 280 90, 500 90" fill="none" stroke="#cbd5e1" stroke-width="2" stroke-dasharray="8,4" />
  <rect x="380" y="55" width="240" height="70" rx="6" fill="#e0f2fe" stroke="#38bdf8" stroke-width="2" filter="url(#shadow)" />
  <text x="500" y="85" fill="#0369a1" font-size="13" font-weight="500" text-anchor="middle">BENCH CHARACTERIZATION</text>
  <text x="500" y="105" fill="#0284c7" font-size="10" text-anchor="middle">Define limits, debug root cause</text>
  <rect x="780" y="175" width="180" height="70" rx="6" fill="#ecfdf5" stroke="#10b981" stroke-width="2" filter="url(#shadow)" />
  <text x="870" y="205" fill="#047857" font-size="13" font-weight="500" text-anchor="middle">TEST SPEC</text>
  <text x="870" y="225" fill="#059669" font-size="10" text-anchor="middle">Frozen limits &amp; vectors</text>
  <rect x="380" y="315" width="240" height="70" rx="6" fill="#334155" filter="url(#shadow)" />
  <text x="500" y="345" fill="#f8fafc" font-size="13" font-weight="500" text-anchor="middle">ATE PRODUCTION SCREEN</text>
  <text x="500" y="365" fill="#94a3b8" font-size="10" text-anchor="middle">What fails, bin map, yield</text>
  <rect x="40" y="175" width="180" height="70" rx="6" fill="#fef3c7" stroke="#f59e0b" stroke-width="2" filter="url(#shadow)" />
  <text x="130" y="205" fill="#b45309" font-size="13" font-weight="500" text-anchor="middle">FAIL DATA</text>
  <text x="130" y="225" fill="#d97706" font-size="10" text-anchor="middle">Escalate to bench RCA</text>
  <path d="M 620 90 L 750 175" fill="none" stroke="#0891b2" stroke-width="2" marker-end="url(#arrow)" />
  <path d="M 870 245 L 620 350" fill="none" stroke="#0891b2" stroke-width="2" marker-end="url(#arrow)" />
  <path d="M 380 350 L 220 245" fill="none" stroke="#0891b2" stroke-width="2" marker-end="url(#arrow)" />
  <path d="M 130 175 L 380 90" fill="none" stroke="#0891b2" stroke-width="2" marker-end="url(#arrow)" />
  <text x="500" y="205" fill="#0f172a" font-size="14" font-weight="600" text-anchor="middle">WHAT</text>
  <text x="500" y="225" fill="#64748b" font-size="11" text-anchor="middle">ATE identifies</text>
  <text x="500" y="255" fill="#0f172a" font-size="14" font-weight="600" text-anchor="middle">WHY</text>
  <text x="500" y="275" fill="#64748b" font-size="11" text-anchor="middle">Bench explains</text>
</svg>
