<svg xmlns="http://www.w3.org/2000/svg" viewBox="0 0 1000 400">
  <defs>
    <filter id="shadow" x="-10%" y="-10%" width="120%" height="120%">
      <feDropShadow dx="2" dy="3" stdDeviation="3" flood-opacity="0.1" />
    </filter>
  </defs>
  <rect width="1000" height="400" fill="#ffffff" />
  <g stroke="#f1f5f9" stroke-width="1">
    <line x1="0" y1="50" x2="1000" y2="50" /><line x1="0" y1="100" x2="1000" y2="100" />
    <line x1="0" y1="150" x2="1000" y2="150" /><line x1="0" y1="200" x2="1000" y2="200" />
    <line x1="0" y1="250" x2="1000" y2="250" /><line x1="0" y1="300" x2="1000" y2="300" />
    <line x1="0" y1="350" x2="1000" y2="350" />
    <line x1="500" y1="0" x2="500" y2="400" stroke="#cbd5e1" stroke-width="2" stroke-dasharray="6,4" />
  </g>
  <text x="250" y="35" fill="#64748b" font-size="11" font-weight="500" text-anchor="middle" letter-spacing="1">BENCH - SINGLE SITE</text>
  <rect x="80" y="70" width="340" height="280" rx="8" fill="#f8fafc" stroke="#e2e8f0" stroke-width="1" />
  <rect x="180" y="160" width="140" height="100" rx="4" fill="#0f172a" filter="url(#shadow)" />
  <text x="250" y="210" fill="#f8fafc" font-size="14" font-weight="500" text-anchor="middle">1 x DUT</text>
  <text x="250" y="232" fill="#94a3b8" font-size="11" text-anchor="middle">Engineer-paced</text>
  <rect x="120" y="100" width="80" height="45" rx="4" fill="#334155" />
  <text x="160" y="128" fill="#f8fafc" font-size="10" text-anchor="middle">Scope</text>
  <rect x="300" y="100" width="80" height="45" rx="4" fill="#334155" />
  <text x="340" y="128" fill="#f8fafc" font-size="10" text-anchor="middle">SMU</text>
  <text x="250" y="320" fill="#475569" font-size="12" font-weight="500" text-anchor="middle">~1 part / setup cycle</text>
  <text x="750" y="35" fill="#64748b" font-size="11" font-weight="500" text-anchor="middle" letter-spacing="1">ATE - MULTISITE (e.g. 16-SITE)</text>
  <rect x="530" y="70" width="390" height="280" rx="8" fill="#f0fdfa" stroke="#0d9488" stroke-width="1" />
  <rect x="560" y="95" width="330" height="50" rx="4" fill="#1e293b" filter="url(#shadow)" />
  <text x="725" y="125" fill="#f8fafc" font-size="12" font-weight="500" text-anchor="middle">TEST HEAD - PARALLEL PIN ELECTRONICS</text>
  <g>
    <rect x="580" y="165" width="55" height="40" rx="3" fill="#0f172a" /><text x="607" y="190" fill="#5eead4" font-size="9" text-anchor="middle">S1</text>
    <rect x="645" y="165" width="55" height="40" rx="3" fill="#0f172a" /><text x="672" y="190" fill="#5eead4" font-size="9" text-anchor="middle">S2</text>
    <rect x="710" y="165" width="55" height="40" rx="3" fill="#0f172a" /><text x="737" y="190" fill="#5eead4" font-size="9" text-anchor="middle">S3</text>
    <rect x="775" y="165" width="55" height="40" rx="3" fill="#0f172a" /><text x="802" y="190" fill="#5eead4" font-size="9" text-anchor="middle">S4</text>
    <rect x="580" y="215" width="55" height="40" rx="3" fill="#0f172a" /><text x="607" y="240" fill="#5eead4" font-size="9" text-anchor="middle">S5</text>
    <rect x="645" y="215" width="55" height="40" rx="3" fill="#0f172a" /><text x="672" y="240" fill="#5eead4" font-size="9" text-anchor="middle">S6</text>
    <rect x="710" y="215" width="55" height="40" rx="3" fill="#0f172a" /><text x="737" y="240" fill="#5eead4" font-size="9" text-anchor="middle">S7</text>
    <rect x="775" y="215" width="55" height="40" rx="3" fill="#0f172a" /><text x="802" y="240" fill="#5eead4" font-size="9" text-anchor="middle">S8</text>
    <rect x="580" y="265" width="55" height="40" rx="3" fill="#134e4a" /><text x="607" y="290" fill="#5eead4" font-size="9" text-anchor="middle">...</text>
    <rect x="645" y="265" width="55" height="40" rx="3" fill="#134e4a" />
    <rect x="710" y="265" width="55" height="40" rx="3" fill="#134e4a" />
    <rect x="775" y="265" width="55" height="40" rx="3" fill="#0f172a" /><text x="802" y="290" fill="#5eead4" font-size="9" text-anchor="middle">S16</text>
  </g>
  <rect x="600" y="315" width="250" height="28" rx="4" fill="#ccfbf1" stroke="#0d9488" stroke-width="1" />
  <text x="725" y="334" fill="#0f766e" font-size="11" font-weight="500" text-anchor="middle">N x throughput per handler index</text>
  <text x="500" y="385" fill="#475569" font-size="12" font-weight="500" text-anchor="middle">Same test program, deterministic timing, synchronized instrumentation</text>
</svg>
