<svg xmlns="http://www.w3.org/2000/svg" viewBox="0 0 1000 220">
  <defs>
    <marker id="arrow" viewBox="0 0 10 10" refX="9" refY="5" markerWidth="6" markerHeight="6" orient="auto-start-reverse">
      <path d="M 0 0 L 10 5 L 0 10 z" fill="#64748b" />
    </marker>
    <filter id="shadow" x="-10%" y="-10%" width="120%" height="120%">
      <feDropShadow dx="2" dy="3" stdDeviation="3" flood-opacity="0.1" />
    </filter>
  </defs>
  <rect width="1000" height="220" fill="#ffffff" />
  <g stroke="#f1f5f9" stroke-width="1">
    <line x1="0" y1="40" x2="1000" y2="40" />
    <line x1="0" y1="80" x2="1000" y2="80" />
    <line x1="0" y1="120" x2="1000" y2="120" />
    <line x1="0" y1="160" x2="1000" y2="160" />
    <line x1="100" y1="0" x2="100" y2="220" />
    <line x1="250" y1="0" x2="250" y2="220" />
    <line x1="400" y1="0" x2="400" y2="220" />
    <line x1="550" y1="0" x2="550" y2="220" />
    <line x1="700" y1="0" x2="700" y2="220" />
    <line x1="850" y1="0" x2="850" y2="220" />
  </g>
  <text x="500" y="28" fill="#64748b" font-size="11" font-weight="500" text-anchor="middle" letter-spacing="1">SILICON TEST LIFECYCLE - NPI TO HVM</text>
  <rect x="30" y="70" width="140" height="90" rx="6" fill="#1e293b" filter="url(#shadow)" />
  <text x="100" y="108" fill="#f8fafc" font-size="12" font-weight="500" text-anchor="middle">TAPE-OUT</text>
  <text x="100" y="128" fill="#94a3b8" font-size="10" text-anchor="middle">First silicon</text>
  <text x="100" y="145" fill="#64748b" font-size="9" text-anchor="middle">NPI</text>
  <path d="M 175 115 L 205 115" fill="none" stroke="#64748b" stroke-width="2" marker-end="url(#arrow)" />
  <rect x="210" y="70" width="140" height="90" rx="6" fill="#e0f2fe" stroke="#38bdf8" stroke-width="2" filter="url(#shadow)" />
  <text x="280" y="108" fill="#0369a1" font-size="12" font-weight="500" text-anchor="middle">BENCH CHAR</text>
  <text x="280" y="128" fill="#0284c7" font-size="10" text-anchor="middle">Parametric limits</text>
  <text x="280" y="145" fill="#64748b" font-size="9" text-anchor="middle">DV / validation</text>
  <path d="M 355 115 L 385 115" fill="none" stroke="#64748b" stroke-width="2" marker-end="url(#arrow)" />
  <rect x="390" y="70" width="140" height="90" rx="6" fill="#334155" filter="url(#shadow)" />
  <text x="460" y="108" fill="#f8fafc" font-size="12" font-weight="500" text-anchor="middle">ATE PROGRAM</text>
  <text x="460" y="128" fill="#94a3b8" font-size="10" text-anchor="middle">Vectors &amp; limits</text>
  <text x="460" y="145" fill="#64748b" font-size="9" text-anchor="middle">Industrialization</text>
  <path d="M 535 115 L 565 115" fill="none" stroke="#64748b" stroke-width="2" marker-end="url(#arrow)" />
  <rect x="570" y="70" width="140" height="90" rx="6" fill="#0f766e" filter="url(#shadow)" />
  <text x="640" y="108" fill="#f0fdfa" font-size="12" font-weight="500" text-anchor="middle">HVM SCREEN</text>
  <text x="640" y="128" fill="#99f6e4" font-size="10" text-anchor="middle">Multisite ATE</text>
  <text x="640" y="145" fill="#5eead4" font-size="9" text-anchor="middle">Handler / prober</text>
  <path d="M 715 115 L 745 115" fill="none" stroke="#64748b" stroke-width="2" marker-end="url(#arrow)" />
  <rect x="750" y="70" width="140" height="90" rx="6" fill="#ecfdf5" stroke="#10b981" stroke-width="2" filter="url(#shadow)" />
  <text x="820" y="108" fill="#047857" font-size="12" font-weight="500" text-anchor="middle">YIELD / BIN</text>
  <text x="820" y="128" fill="#059669" font-size="10" text-anchor="middle">SKU grading</text>
  <text x="820" y="145" fill="#64748b" font-size="9" text-anchor="middle">Ship decision</text>
  <rect x="30" y="185" width="860" height="22" rx="4" fill="#f8fafc" stroke="#e2e8f0" stroke-width="1" />
  <text x="460" y="200" fill="#475569" font-size="10" text-anchor="middle">Bench defines what to test - ATE tests every unit at volume</text>
</svg>
